<svg width="20" height="20" viewBox="0 0 20 20" fill="none" xmlns="http://www.w3.org/2000/svg">
<path d="M17.8307 14.3924L16.5978 12.257C16.1043 11.3391 15.2592 10.9944 14.2775 11.3113C14.2355 11.3249 14.1952 11.3428 14.1569 11.3648L11.8929 12.672C11.4865 12.8924 10.1933 12.0391 9.1607 10.2439C8.45312 9.01374 8.07546 7.56796 8.72082 7.18147L10.9563 5.89081C10.9852 5.87417 11.0126 5.85526 11.0384 5.83425C11.7786 5.23171 11.9691 4.42499 11.575 3.56272C11.5667 3.54475 11.5577 3.52722 11.5478 3.51007L10.2015 1.17819C9.58914 0.117645 8.32375 -0.302159 7.38035 0.242372L3.23894 2.63339C2.38839 3.12444 1.48156 4.28296 1.99148 7.01335C2.31246 8.73175 3.15917 10.8385 4.37562 12.9455C5.62136 15.1032 7.15054 17.0645 8.57109 18.3266C10.0003 19.5964 11.1085 19.9964 11.9377 19.9963C12.4092 19.9963 12.7906 19.8669 13.0892 19.6944L17.2306 17.3034C18.1737 16.7589 18.443 15.453 17.8307 14.3924ZM16.6056 16.2209L12.4642 18.6119C11.8132 18.9878 10.6969 18.5432 9.40132 17.3921C8.07687 16.2154 6.63964 14.3669 5.4582 12.3205C4.31066 10.333 3.51589 8.36667 3.22027 6.78386C3.01285 5.67354 2.95621 4.23999 3.86398 3.71593L8.00539 1.32487C8.0905 1.27573 8.18613 1.25257 8.28593 1.25257C8.58535 1.25257 8.9216 1.46124 9.11898 1.80315L10.4492 4.10714C10.5843 4.4171 10.5403 4.61413 10.2845 4.83534L8.09265 6.10081C8.0907 6.10194 8.08871 6.10311 8.08679 6.10425C7.38281 6.521 7.05367 7.30733 7.16003 8.31847C7.2616 9.28362 7.71488 10.2372 8.07722 10.8672C8.61921 11.8095 9.32968 12.6684 10.0263 13.2236C11.2606 14.2074 12.1092 13.983 12.5052 13.7618C12.5078 13.7604 12.5103 13.7589 12.5129 13.7575L14.7202 12.4831C15.0968 12.3764 15.2981 12.4755 15.4999 12.8545C15.5033 12.8608 15.5067 12.8671 15.5103 12.8733L16.7482 15.0174C17.0113 15.4732 16.946 16.0244 16.6056 16.2209Z" fill="white"/>
</svg>
