<svg width="30" height="30" viewBox="0 0 30 30" fill="none" xmlns="http://www.w3.org/2000/svg">
<circle cx="15" cy="15" r="14.5" stroke="#333333"/>
<path d="M11.287 11.4707L18.7164 11.4707C19.0097 11.4702 19.2972 11.5529 19.5455 11.709C19.7937 11.8652 19.9927 12.0885 20.1194 12.353C20.2676 12.6669 20.3247 13.0161 20.2842 13.3609C20.2436 13.7057 20.107 14.0321 19.89 14.303L16.1753 18.803C16.0295 18.9712 15.8492 19.1061 15.6468 19.1986C15.4443 19.291 15.2243 19.3389 15.0017 19.3389C14.7791 19.3389 14.5592 19.291 14.3567 19.1986C14.1542 19.1061 13.974 18.9712 13.8282 18.803L10.1135 14.303C9.89643 14.0321 9.75983 13.7057 9.71927 13.3609C9.67871 13.0161 9.73582 12.6669 9.88408 12.353C10.0107 12.0885 10.2097 11.8652 10.458 11.709C10.7063 11.5529 10.9937 11.4702 11.287 11.4707Z" fill="#333333"/>
</svg>
