<svg width="40" height="40" viewBox="0 0 40 40" fill="none" xmlns="http://www.w3.org/2000/svg">
<path fill-rule="evenodd" clip-rule="evenodd" d="M22.7794 12.3119C23.9199 11.5313 24.6682 10.2197 24.6682 8.73334C24.6682 6.3401 22.7282 4.39998 20.3349 4.39998C17.9417 4.39998 16.0016 6.3401 16.0016 8.73334C16.0016 10.3235 16.8581 11.7136 18.1349 12.4675V12.447C18.1349 12.447 18.4364 12.6107 18.9349 12.7564C19.334 12.873 19.8593 12.9779 20.4571 12.9779C21.055 12.9779 21.5803 12.8447 21.9794 12.6966C22.4778 12.5117 22.7794 12.3038 22.7794 12.3038V12.3119ZM22.7794 13.2484C24.3809 12.3795 25.4682 10.6834 25.4682 8.73334C25.4682 5.89826 23.17 3.59998 20.3349 3.59998C17.4998 3.59998 15.2016 5.89826 15.2016 8.73334C15.2016 10.7811 16.4006 12.5488 18.1349 13.3727V15.7557V16.5557H17.3349H17.2813H16.1793L16.9372 17.3557L20.0256 20.6157L20.5794 21.2002L21.098 20.5844L23.8168 17.3557L24.4905 16.5557H23.5794H23.4446H22.7794V15.7557V13.2484ZM18.9349 13.6735C19.38 13.7993 19.8496 13.8667 20.3349 13.8667C20.91 13.8667 21.4631 13.7721 21.9794 13.5976V16.5557V17.3557H22.7709L20.5442 19.9999L18.0392 17.3557H18.1349H18.9349V16.5557V13.6735ZM20.5078 6.73194V6.13718H20.0867V6.7265C19.9188 6.74406 19.7675 6.7855 19.6328 6.85086C19.4487 6.94018 19.3046 7.06686 19.2008 7.23094C19.0987 7.39498 19.0476 7.58914 19.0476 7.81334C19.0476 8.04122 19.095 8.2317 19.1898 8.38482C19.2864 8.53614 19.4213 8.66374 19.5945 8.76766C19.7695 8.86974 19.9737 8.96178 20.207 9.04382C20.3692 9.10034 20.4987 9.16142 20.5953 9.22702C20.6919 9.29082 20.7612 9.36282 20.8031 9.44306C20.8468 9.52142 20.8687 9.6135 20.8687 9.71922C20.8687 9.82858 20.8441 9.9261 20.7949 10.0118C20.7475 10.0957 20.6764 10.1613 20.5816 10.2087C20.4886 10.2542 20.3738 10.277 20.2371 10.277C20.155 10.277 20.073 10.2652 19.991 10.2415C19.9108 10.2178 19.8378 10.1786 19.7722 10.1239C19.7066 10.0692 19.6546 9.99446 19.6164 9.8997C19.5781 9.8049 19.559 9.68642 19.559 9.54422H18.8972C18.8972 9.78118 18.9355 9.9817 19.0121 10.1458C19.0886 10.308 19.1916 10.4383 19.321 10.5368C19.4505 10.6352 19.5945 10.7063 19.7531 10.7501C19.8476 10.7748 19.9424 10.7922 20.0375 10.8023V11.3352H20.4558V10.8021C20.6239 10.7846 20.7761 10.7463 20.9125 10.6872C21.1075 10.6015 21.2588 10.4766 21.3664 10.3126C21.4758 10.1485 21.5304 9.9489 21.5304 9.71374C21.5304 9.4859 21.483 9.29722 21.3882 9.14774C21.2953 8.99642 21.1622 8.86974 20.989 8.76766C20.8177 8.66374 20.6144 8.56986 20.3793 8.48602C20.2079 8.42222 20.073 8.3593 19.9746 8.29734C19.878 8.23354 19.8096 8.16246 19.7695 8.08406C19.7294 8.00566 19.7094 7.91454 19.7094 7.81062C19.7094 7.70306 19.7285 7.60738 19.7668 7.5235C19.8069 7.43966 19.8688 7.37402 19.9527 7.32662C20.0366 7.27742 20.1432 7.25282 20.2726 7.25282C20.3638 7.25282 20.4449 7.27014 20.516 7.30478C20.5889 7.33938 20.6509 7.38954 20.7019 7.45514C20.753 7.51894 20.7912 7.59734 20.8168 7.6903C20.8441 7.78146 20.8578 7.88534 20.8578 8.00202H21.514C21.514 7.79602 21.4849 7.61374 21.4265 7.45514C21.37 7.29474 21.288 7.15982 21.1804 7.05046C21.0729 6.9411 20.9426 6.85814 20.7894 6.80162C20.7019 6.76898 20.608 6.74574 20.5078 6.73194ZM29.621 21.6061C30.3054 20.9642 31.2402 20.3173 32.3449 20.4087C32.7554 20.4426 33.2229 20.5537 33.6133 20.8455C33.6752 20.8918 33.7335 20.9405 33.7883 20.9912C34.4316 21.5863 34.495 22.3772 34.313 23.0908C34.1336 23.7937 33.7071 24.4842 33.2614 25.0225L27.8305 31.583C27.4234 32.0748 26.8213 32.3653 26.1816 32.3786L17.0382 32.5685C16.7483 32.5745 16.4686 32.6755 16.2422 32.856L15.99 33.057C16.4279 33.5582 16.4225 34.3143 15.9636 34.8098L14.5117 36.3773C14.0088 36.9203 13.1558 36.9432 12.6242 36.4282L6.00089 30.0108C5.47369 29.5 5.46773 28.6581 5.98765 28.14L7.59209 26.541C8.09621 26.0386 8.90705 26.0282 9.42385 26.5098L11.9152 24.3581C12.3146 24.0131 12.8254 23.8231 13.354 23.8231H23.9028H23.9247L23.9465 23.8253C24.3082 23.8613 24.8198 23.9768 25.2917 24.2134C25.5932 24.3645 25.9029 24.5781 26.1387 24.8723L29.621 21.6061ZM15.024 33.3283L15.3021 33.6054L15.3058 33.6091C15.4725 33.7753 15.4779 34.0431 15.3179 34.2157L13.866 35.7833C13.6984 35.9643 13.414 35.9719 13.2368 35.8003L6.61345 29.3829C6.43773 29.2126 6.43573 28.9319 6.60905 28.7593L8.21349 27.1603C8.38265 26.9917 8.65545 26.9893 8.82753 27.1531L9.09225 27.4169L14.994 33.2984L15.024 33.3283ZM15.6933 32.1721L15.3673 32.4319L10.0474 27.1301L12.4907 25.0199C12.7303 24.8129 13.0368 24.6989 13.354 24.6989H23.8799C24.155 24.7289 24.5474 24.8206 24.8968 24.9958C25.2588 25.1773 25.516 25.4173 25.6137 25.712C25.643 25.8005 25.6604 25.8997 25.6604 26.0126C25.6604 26.6145 25.3639 27.0466 24.9988 27.3422C24.8148 27.4911 24.6186 27.6003 24.4478 27.6713C24.266 27.7467 24.1493 27.7641 24.1225 27.7641H24.1204H24.1182H24.116H24.1137H24.1113H24.1088H24.1063H24.1038H24.1011H24.0984H24.0956H24.0927H24.0898H24.0868H24.0837H24.0806H24.0774H24.0741H24.0708H24.0674H24.0639H24.0604H24.0568H24.0531H24.0494H24.0456H24.0417H24.0378H24.0338H24.0297H24.0256H24.0214H24.0171H24.0128H24.0084H24.004H23.9995H23.9949H23.9903H23.9856H23.9808H23.976H23.9711H23.9662H23.9612H23.9561H23.951H23.9458H23.9405H23.9352H23.9298H23.9244H23.9189H23.9134H23.9078H23.9021H23.8964H23.8906H23.8847H23.8788H23.8729H23.8668H23.8608H23.8546H23.8484H23.8422H23.8359H23.8296H23.8231H23.8166H23.8101H23.8036H23.7969H23.7902H23.7835H23.7766H23.7698H23.7629H23.7559H23.7489H23.7418H23.7347H23.7275H23.7203H23.713H23.7056H23.6983H23.6908H23.6833H23.6758H23.6682H23.6605H23.6528H23.6451H23.6373H23.6294H23.6215H23.6136H23.6056H23.5975H23.5894H23.5813H23.5731H23.5648H23.5565H23.5482H23.5398H23.5314H23.5228H23.5143H23.5058H23.4971H23.4884H23.4797H23.471H23.4621H23.4533H23.4444H23.4354H23.4264H23.4174H23.4083H23.3992H23.39H23.3808H23.3715H23.3622H23.3529H23.3435H23.334H23.3246H23.315H23.3055H23.2959H23.2862H23.2765H23.2668H23.257H23.2472H23.2374H23.2275H23.2176H23.2076H23.1976H23.1875H23.1774H23.1673H23.1571H23.1469H23.1366H23.1264H23.116H23.1057H23.0953H23.0848H23.0744H23.0639H23.0533H23.0427H23.0321H23.0214H23.0108H23H22.9893H22.9785H22.9676H22.9568H22.9458H22.9349H22.9239H22.9129H22.9019H22.8908H22.8797H22.8686H22.8574H22.8462H22.835H22.8237H22.8124H22.801H22.7897H22.7783H22.7668H22.7554H22.7439H22.7324H22.7208H22.7092H22.6976H22.686H22.6743H22.6626H22.6509H22.6391H22.6273H22.6155H22.6037H22.5918H22.5799H22.568H22.556H22.544H22.532H22.52H22.5079H22.4958H22.4837H22.4716H22.4594H22.4472H22.435H22.4228H22.4105H22.3982H22.3859H22.3736H22.3612H22.3488H22.3364H22.324H22.3116H22.2991H22.2866H22.2741H22.2615H22.249H22.2364H22.2238H22.2111H22.1985H22.1858H22.1731H22.1604H22.1477H22.1349H22.1222H22.1094H22.0966H22.0838H22.0709H22.058H22.0452H22.0322H22.0193H22.0064H21.9934H21.9805H21.9675H21.9545H21.9414H21.9284H21.9154H21.9023H21.8892H21.8761H21.863H21.8498H21.8367H21.8236H21.8104H21.7972H21.784H21.7708H21.7575H21.7443H21.731H21.7178H21.7045H21.6912H21.6779H21.6646H21.6512H21.6379H21.6245H21.6112H21.5978H21.5844H21.571H21.5576H21.5442H21.5308H21.5173H21.5039H21.4904H21.477H21.4635H21.45H21.4365H21.423H21.4095H21.396H21.3825H21.369H21.3554H21.3419H21.3283H21.3148H21.3012H21.2876H21.2741H21.2605H21.2469H21.2333H21.2197H21.2062H21.1926H21.1789H21.1653H21.1517H21.1381H21.1245H21.1108H21.0972H21.0836H21.07H21.0564H21.0427H21.0291H21.0154H21.0018H20.9882H20.9745H20.9609H20.9472H20.9336H20.92H20.9063H20.8927H20.879H20.8654H20.8518H20.8381H20.8245H20.8108H20.7972H20.7836H20.77H20.7563H20.7427H20.7291H20.7155H20.7018H20.6882H20.6746H20.661H20.6474H20.6338H20.6202H20.6067H20.5931H20.5795H20.566H20.5524H20.5388H20.5253H20.5118H20.4982H20.4847H20.4712H20.4577H20.4442H20.4307H20.4172H20.4037H20.3902H20.3768H20.3633H20.3499H20.3364H20.323H20.3096H20.2962H20.2828H20.2694H20.256H20.2427H20.2293H20.216H20.2026H20.1893H20.176H20.1627H20.1494H20.1362H20.1229H20.1097H20.0964H20.0832H20.07H20.0568H20.0437H20.0305H20.0174H20.0042H19.9911H19.978H19.9649H19.9519H19.9388H19.9258H19.9128H19.8998H19.8868H19.8738H19.8608H19.8479H19.835H19.8221H19.8092H19.7964H19.7835H19.7707H19.7579H19.7451H19.7323H19.7196H19.7068H19.6941H19.6814H19.6688H19.6561H19.6435H19.6309H19.6183H19.6058H19.5932H19.5807H19.5682H19.5557H19.5433H19.5308H19.5184H19.506H19.4937H19.4814H19.469H19.4568H19.4445H19.4323H19.42H19.4079H19.3957H19.3836H19.3714H19.3594H19.3473H19.3353H19.3233H19.3113H19.2994H19.2874H19.2755H19.2637H19.2518H19.24H19.2282H19.2165H19.2047H19.193H19.1814H19.1697H19.1581H19.1466H19.135H19.1235H19.112H19.1005H19.0891H19.0777H19.0663H19.055H19.0437H19.0324H19.0212H19.01H18.9988H18.9877H18.9766H18.9655H18.9545H18.9435H18.9325H18.9216H18.9106H18.8998H18.889H18.8782H18.8674H18.8567H18.846H18.8353H18.8247H18.8141H18.8036H18.7931H18.7826H18.7722H18.7618H18.7514H18.7411H18.7308H18.7206H18.7104H18.7002H18.69H18.68H18.6699H18.6599H18.6499H18.64H18.6301C18.3874 27.7641 18.1907 27.9602 18.1907 28.202C18.1907 28.4439 18.3874 28.6399 18.6301 28.6399H18.64H18.6499H18.6599H18.6699H18.68H18.69H18.7002H18.7104H18.7206H18.7308H18.7411H18.7514H18.7618H18.7722H18.7826H18.7931H18.8036H18.8141H18.8247H18.8353H18.846H18.8567H18.8674H18.8782H18.889H18.8998H18.9106H18.9216H18.9325H18.9435H18.9545H18.9655H18.9766H18.9877H18.9988H19.01H19.0212H19.0324H19.0437H19.055H19.0663H19.0777H19.0891H19.1005H19.112H19.1235H19.135H19.1466H19.1581H19.1697H19.1814H19.193H19.2047H19.2165H19.2282H19.24H19.2518H19.2637H19.2755H19.2874H19.2994H19.3113H19.3233H19.3353H19.3473H19.3594H19.3714H19.3836H19.3957H19.4079H19.42H19.4323H19.4445H19.4568H19.469H19.4814H19.4937H19.506H19.5184H19.5308H19.5433H19.5557H19.5682H19.5807H19.5932H19.6058H19.6183H19.6309H19.6435H19.6561H19.6688H19.6814H19.6941H19.7068H19.7196H19.7323H19.7451H19.7579H19.7707H19.7835H19.7964H19.8092H19.8221H19.835H19.8479H19.8608H19.8738H19.8868H19.8998H19.9128H19.9258H19.9388H19.9519H19.9649H19.978H19.9911H20.0042H20.0174H20.0305H20.0437H20.0568H20.07H20.0832H20.0964H20.1097H20.1229H20.1362H20.1494H20.1627H20.176H20.1893H20.2026H20.216H20.2293H20.2427H20.256H20.2694H20.2828H20.2962H20.3096H20.323H20.3364H20.3499H20.3633H20.3768H20.3902H20.4037H20.4172H20.4307H20.4442H20.4577H20.4712H20.4847H20.4982H20.5118H20.5253H20.5388H20.5524H20.566H20.5795H20.5931H20.6067H20.6202H20.6338H20.6474H20.661H20.6746H20.6882H20.7018H20.7155H20.7291H20.7427H20.7563H20.77H20.7836H20.7972H20.8108H20.8245H20.8381H20.8518H20.8654H20.879H20.8927H20.9063H20.92H20.9336H20.9472H20.9609H20.9745H20.9882H21.0018H21.0154H21.0291H21.0427H21.0564H21.07H21.0836H21.0972H21.1108H21.1245H21.1381H21.1517H21.1653H21.1789H21.1926H21.2062H21.2197H21.2333H21.2469H21.2605H21.2741H21.2876H21.3012H21.3148H21.3283H21.3419H21.3554H21.369H21.3825H21.396H21.4095H21.423H21.4365H21.45H21.4635H21.477H21.4904H21.5039H21.5173H21.5308H21.5442H21.5576H21.571H21.5844H21.5978H21.6112H21.6245H21.6379H21.6512H21.6646H21.6779H21.6912H21.7045H21.7178H21.731H21.7443H21.7575H21.7708H21.784H21.7972H21.8104H21.8236H21.8367H21.8498H21.863H21.8761H21.8892H21.9023H21.9154H21.9284H21.9414H21.9545H21.9675H21.9805H21.9934H22.0064H22.0193H22.0322H22.0452H22.058H22.0709H22.0838H22.0966H22.1094H22.1222H22.1349H22.1477H22.1604H22.1731H22.1858H22.1985H22.2111H22.2238H22.2364H22.249H22.2615H22.2741H22.2866H22.2991H22.3116H22.324H22.3364H22.3488H22.3612H22.3736H22.3859H22.3982H22.4105H22.4228H22.435H22.4472H22.4594H22.4716H22.4837H22.4958H22.5079H22.52H22.532H22.544H22.556H22.568H22.5799H22.5918H22.6037H22.6155H22.6273H22.6391H22.6509H22.6626H22.6743H22.686H22.6976H22.7092H22.7208H22.7324H22.7439H22.7554H22.7668H22.7783H22.7897H22.801H22.8124H22.8237H22.835H22.8462H22.8574H22.8686H22.8797H22.8908H22.9019H22.9129H22.9239H22.9349H22.9458H22.9568H22.9676H22.9785H22.9893H23H23.0108H23.0214H23.0321H23.0427H23.0533H23.0639H23.0744H23.0848H23.0953H23.1057H23.116H23.1264H23.1366H23.1469H23.1571H23.1673H23.1774H23.1875H23.1976H23.2076H23.2176H23.2275H23.2374H23.2472H23.257H23.2668H23.2765H23.2862H23.2959H23.3055H23.315H23.3246H23.334H23.3435H23.3529H23.3622H23.3715H23.3808H23.39H23.3992H23.4083H23.4174H23.4264H23.4354H23.4444H23.4533H23.4621H23.471H23.4797H23.4884H23.4971H23.5058H23.5143H23.5228H23.5314H23.5398H23.5482H23.5565H23.5648H23.5731H23.5813H23.5894H23.5975H23.6056H23.6136H23.6215H23.6294H23.6373H23.6451H23.6528H23.6605H23.6682H23.6758H23.6833H23.6908H23.6983H23.7056H23.713H23.7203H23.7275H23.7347H23.7418H23.7489H23.7559H23.7629H23.7698H23.7766H23.7835H23.7902H23.7969H23.8036H23.8101H23.8166H23.8231H23.8296H23.8359H23.8422H23.8484H23.8546H23.8608H23.8668H23.8729H23.8788H23.8847H23.8906H23.8964H23.9021H23.9078H23.9134H23.9189H23.9244H23.9298H23.9352H23.9405H23.9458H23.951H23.9561H23.9612H23.9662H23.9711H23.976H23.9808H23.9856H23.9903H23.9949H23.9995H24.004H24.0084H24.0128H24.0171H24.0214H24.0256H24.0297H24.0338H24.0378H24.0417H24.0456H24.0494H24.0531H24.0568H24.0604H24.0639H24.0674H24.0708H24.0741H24.0774H24.0806H24.0837H24.0868H24.0898H24.0927H24.0956H24.0984H24.1011H24.1038H24.1063H24.1088H24.1113H24.1137H24.116H24.1182H24.1204H24.1225C24.3154 28.6399 24.5556 28.5753 24.7858 28.4797C25.027 28.3795 25.2975 28.2287 25.553 28.0219C26.0667 27.6059 26.5391 26.9433 26.5391 26.0126C26.5391 25.9122 26.5315 25.8148 26.5167 25.7205L30.2233 22.2439C30.8674 21.6397 31.559 21.2225 32.2722 21.2814C32.593 21.3079 32.8774 21.3902 33.086 21.5461C33.1227 21.5735 33.1574 21.6025 33.1904 21.6331C33.5194 21.9374 33.5946 22.3525 33.4613 22.8749C33.3252 23.4081 32.9822 23.9837 32.5836 24.4652L27.1526 31.0257C26.9084 31.3208 26.5471 31.4951 26.1633 31.5031L17.0198 31.6929C16.5368 31.7029 16.0706 31.8713 15.6933 32.1721ZM31.2016 6.79998C31.4225 6.79998 31.6016 6.97906 31.6016 7.19998V14.1187L33.2978 12.1397C33.4416 11.9719 33.6942 11.9525 33.8619 12.0963C34.0296 12.2401 34.049 12.4926 33.9053 12.6603L31.507 15.4583L31.5038 15.4621L31.2016 15.8146L30.8992 15.4619L30.8962 15.4584L28.4978 12.6603C28.3541 12.4926 28.3735 12.2401 28.5412 12.0963C28.709 11.9525 28.9615 11.9719 29.1053 12.1397L30.8016 14.1187V7.19998C30.8016 6.97906 30.9806 6.79998 31.2016 6.79998ZM9.20157 11.2C9.42249 11.2 9.60157 11.3791 9.60157 11.6V18.5187L11.2978 16.5397C11.4416 16.3719 11.6942 16.3525 11.8619 16.4963C12.0296 16.6401 12.049 16.8926 11.9053 17.0603L9.50697 19.8583C9.50593 19.8595 9.50489 19.8608 9.50381 19.862L9.20157 20.2146L8.89929 19.862C8.89825 19.8608 8.89721 19.8595 8.89621 19.8583L6.49785 17.0603C6.35409 16.8926 6.37353 16.6401 6.54125 16.4963C6.70897 16.3525 6.96149 16.3719 7.10529 16.5397L8.80157 18.5187V11.6C8.80157 11.3791 8.98065 11.2 9.20157 11.2Z" fill="#09A8D4"/>
</svg>
