<svg width="100" height="100" viewBox="0 0 100 100" fill="none" xmlns="http://www.w3.org/2000/svg">
<g clip-path="url(#clip0_165_946)">
<path d="M20.3125 19.5312C21.1754 19.5312 21.875 18.8317 21.875 17.9688C21.875 17.1058 21.1754 16.4062 20.3125 16.4062C19.4496 16.4062 18.75 17.1058 18.75 17.9688C18.75 18.8317 19.4496 19.5312 20.3125 19.5312Z" fill="#09A8D4"/>
<path d="M26.5625 19.5312C27.4254 19.5312 28.125 18.8317 28.125 17.9688C28.125 17.1058 27.4254 16.4062 26.5625 16.4062C25.6996 16.4062 25 17.1058 25 17.9688C25 18.8317 25.6996 19.5312 26.5625 19.5312Z" fill="#09A8D4"/>
<path d="M76.5625 53.9062H84.375C85.6178 53.9049 86.8093 53.4106 87.6881 52.5318C88.5668 51.653 89.0611 50.4615 89.0625 49.2188V42.9688C89.0611 41.726 88.5668 40.5345 87.6881 39.6557C86.8093 38.7769 85.6178 38.2826 84.375 38.2812H76.5625C75.3197 38.2826 74.1282 38.7769 73.2494 39.6557C72.3707 40.5345 71.8764 41.726 71.875 42.9688V49.2188C71.8764 50.4615 72.3707 51.653 73.2494 52.5318C74.1282 53.4106 75.3197 53.9049 76.5625 53.9062ZM75 42.9688C75.0005 42.5545 75.1653 42.1574 75.4582 41.8645C75.7511 41.5716 76.1483 41.4068 76.5625 41.4062H84.375C84.7892 41.4068 85.1864 41.5716 85.4793 41.8645C85.7722 42.1574 85.937 42.5545 85.9375 42.9688V49.2188C85.937 49.633 85.7722 50.0301 85.4793 50.323C85.1864 50.6159 84.7892 50.7807 84.375 50.7812H76.5625C76.1483 50.7807 75.7511 50.6159 75.4582 50.323C75.1653 50.0301 75.0005 49.633 75 49.2188V42.9688Z" fill="#09A8D4"/>
<path d="M41.4063 66.6367V63.2071C45.811 62.8051 49.8911 60.7204 52.798 57.3868C55.7049 54.0531 57.2147 49.7272 57.0135 45.3088C56.8122 40.8903 54.9154 36.7196 51.7174 33.664C48.5195 30.6084 44.2668 28.9033 39.8438 28.9033C35.4208 28.9033 31.168 30.6084 27.9701 33.664C24.7722 36.7196 22.8753 40.8903 22.6741 45.3088C22.4728 49.7272 23.9827 54.0531 26.8895 57.3868C29.7964 60.7204 33.8766 62.8051 38.2813 63.2071V66.6367C37.1537 66.9741 36.1648 67.6659 35.4612 68.6095C34.7576 69.553 34.3768 70.6981 34.375 71.8751V84.3751C34.375 85.8255 34.9512 87.2165 35.9768 88.2421C37.0024 89.2677 38.3934 89.8439 39.8438 89.8439C41.2942 89.8439 42.6852 89.2677 43.7108 88.2421C44.7363 87.2165 45.3125 85.8255 45.3125 84.3751V71.8751C45.3108 70.6981 44.9299 69.553 44.2263 68.6095C43.5227 67.6659 42.5338 66.9741 41.4063 66.6367ZM25.7813 46.0939C25.7844 44.4962 26.0608 42.9108 26.5986 41.4064H53.0889C54.1787 44.4364 54.1787 47.7514 53.0889 50.7814H26.5986C26.0608 49.2769 25.7844 47.6915 25.7813 46.0939ZM39.8438 32.0314C42.1564 32.0302 44.4336 32.6001 46.4731 33.6904C48.5126 34.7807 50.2514 36.3577 51.535 38.2814H28.1525C29.4362 36.3577 31.1749 34.7807 33.2144 33.6904C35.2539 32.6001 37.5311 32.0302 39.8438 32.0314ZM28.1525 53.9064H51.535C50.2505 55.8292 48.5116 57.4056 46.4723 58.4958C44.4329 59.586 42.1562 60.1564 39.8438 60.1564C37.5313 60.1564 35.2546 59.586 33.2153 58.4958C31.176 57.4056 29.437 55.8292 28.1525 53.9064ZM42.1875 84.3751C42.1875 84.9967 41.9406 85.5929 41.501 86.0324C41.0615 86.4719 40.4654 86.7189 39.8438 86.7189C39.2222 86.7189 38.626 86.4719 38.1865 86.0324C37.7469 85.5929 37.5 84.9967 37.5 84.3751V71.8751C37.5 71.2535 37.7469 70.6574 38.1865 70.2178C38.626 69.7783 39.2222 69.5314 39.8438 69.5314C40.4654 69.5314 41.0615 69.7783 41.501 70.2178C41.9406 70.6574 42.1875 71.2535 42.1875 71.8751V84.3751Z" fill="#09A8D4"/>
<path d="M14.8438 16.4062C14.8446 15.5777 15.1741 14.7833 15.76 14.1975C16.3458 13.6116 17.1402 13.2821 17.9688 13.2812H82.0312C82.8598 13.2821 83.6542 13.6116 84.24 14.1975C84.8259 14.7833 85.1554 15.5777 85.1562 16.4062V35.1959C86.2587 35.3076 87.3244 35.6546 88.2812 36.2134V16.4062C88.2794 14.7492 87.6203 13.1606 86.4486 11.9889C85.2769 10.8172 83.6883 10.1581 82.0312 10.1562H17.9688C16.3117 10.1581 14.7231 10.8172 13.5514 11.9889C12.3797 13.1606 11.7206 14.7492 11.7188 16.4062V36.2134C12.6756 35.6546 13.7413 35.3076 14.8438 35.1959V16.4062Z" fill="#09A8D4"/>
<path d="M15.625 53.9062H21.1047C20.6811 52.8941 20.3411 51.8489 20.088 50.7812H15.625C15.2108 50.7807 14.8137 50.6159 14.5207 50.323C14.2278 50.0301 14.063 49.633 14.0625 49.2188V42.9688C14.063 42.5545 14.2278 42.1574 14.5207 41.8645C14.8137 41.5716 15.2108 41.4068 15.625 41.4062H20.0832C20.3351 40.3387 20.6738 39.2936 21.0959 38.2812H15.625C14.3822 38.2826 13.1907 38.7769 12.3119 39.6557C11.4332 40.5345 10.9389 41.726 10.9375 42.9688V49.2188C10.9389 50.4615 11.4332 51.653 12.3119 52.5318C13.1907 53.4106 14.3822 53.9049 15.625 53.9062Z" fill="#09A8D4"/>
<path d="M64.0617 50.7812H59.5987C59.3456 51.8489 59.0056 52.8941 58.582 53.9062H64.0617C65.3045 53.9049 66.496 53.4106 67.3748 52.5318C68.2536 51.653 68.7479 50.4615 68.7492 49.2188V42.9688C68.7479 41.726 68.2536 40.5345 67.3748 39.6557C66.496 38.7769 65.3045 38.2826 64.0617 38.2812H58.5908C59.0129 39.2936 59.3516 40.3387 59.6035 41.4062H64.0617C64.476 41.4068 64.8731 41.5716 65.166 41.8645C65.4589 42.1574 65.6237 42.5545 65.6242 42.9688V49.2188C65.6237 49.633 65.4589 50.0301 65.166 50.323C64.8731 50.6159 64.476 50.7807 64.0617 50.7812Z" fill="#09A8D4"/>
<path d="M31.25 82.0312H7.8125C6.84338 82.0302 5.89833 81.7292 5.10703 81.1697C4.31572 80.6102 3.71692 79.8196 3.39279 78.9062H31.25V75.7812H14.8438V56.9916C13.7413 56.8799 12.6756 56.5329 11.7188 55.9741V75.7812H7.03125V24.2188C7.03179 23.8045 7.19658 23.4074 7.48949 23.1145C7.7824 22.8216 8.17951 22.6568 8.59375 22.6562V19.5312C7.35096 19.5326 6.15947 20.0269 5.28069 20.9057C4.4019 21.7845 3.90761 22.976 3.90625 24.2188V75.7812H1.5625C1.14811 75.7813 0.75069 75.9459 0.457669 76.2389C0.164647 76.5319 2.07182e-05 76.9294 0 77.3438C0.00243358 79.415 0.826315 81.4007 2.29092 82.8653C3.75552 84.3299 5.74124 85.1538 7.8125 85.1562H31.2896C31.2662 84.8985 31.25 84.6387 31.25 84.375V82.0312Z" fill="#09A8D4"/>
<path d="M98.438 75.7812H96.0943V24.2188C96.0929 22.976 95.5986 21.7845 94.7198 20.9057C93.841 20.0269 92.6496 19.5326 91.4068 19.5312V22.6562C91.821 22.6568 92.2181 22.8216 92.511 23.1145C92.8039 23.4074 92.9687 23.8045 92.9693 24.2188V75.7812H88.2818V55.9741C87.3249 56.5329 86.2592 56.8799 85.1568 56.9916V75.7812H48.438V78.9062H96.6077C96.2836 79.8196 95.6848 80.6102 94.8935 81.1697C94.1022 81.7292 93.1571 82.0302 92.188 82.0312H48.438V84.375C48.438 84.6387 48.4218 84.8985 48.3984 85.1562H92.188C94.2593 85.1538 96.245 84.3299 97.7096 82.8653C99.1742 81.4007 99.9981 79.415 100.001 77.3438C100 76.9294 99.8359 76.5319 99.5428 76.2389C99.2498 75.9459 98.8524 75.7813 98.438 75.7812Z" fill="#09A8D4"/>
<path d="M81.25 24.2188C81.25 23.8044 81.0854 23.4069 80.7923 23.1139C80.4993 22.8209 80.1019 22.6563 79.6875 22.6562H20.3125C19.8981 22.6562 19.5007 22.8209 19.2076 23.1139C18.9146 23.4069 18.75 23.8043 18.75 24.2188C18.75 24.6332 18.9146 25.0306 19.2076 25.3236C19.5007 25.6166 19.8981 25.7812 20.3125 25.7812H79.6875C80.1019 25.7812 80.4993 25.6166 80.7923 25.3236C81.0854 25.0306 81.25 24.6331 81.25 24.2188Z" fill="#09A8D4"/>
</g>
<defs>
<clipPath id="clip0_165_946">
<rect width="100" height="100" fill="white"/>
</clipPath>
</defs>
</svg>
