<svg width="30" height="31" viewBox="0 0 30 31" fill="none" xmlns="http://www.w3.org/2000/svg">
<path d="M7.06018 13.25L2.62685 16.3667C2.43518 16.5 2.39352 16.7583 2.52685 16.95C2.61018 17.0667 2.73518 17.125 2.86852 17.125C2.95185 17.125 3.03518 17.1 3.11018 17.05L7.88518 13.6917C7.97685 13.625 8.03518 13.525 8.06018 13.425C8.07685 13.3167 8.06018 13.2083 7.99352 13.1167L6.98518 11.6833L13.4185 11.3333L10.9102 17.2667L9.90185 15.8333C9.76852 15.6417 9.51018 15.6 9.31852 15.7333L4.54352 19.0917C4.35185 19.225 4.31018 19.4833 4.44352 19.675C4.52685 19.7917 4.65185 19.85 4.78518 19.85C4.86852 19.85 4.95185 19.825 5.02685 19.775L9.46018 16.6583L10.6602 18.3583C10.7352 18.4667 10.8685 18.5333 11.0019 18.5333H11.0435C11.1935 18.5167 11.3269 18.4167 11.3852 18.2833L14.4435 11.0417C14.5019 10.9083 14.4852 10.7583 14.4019 10.6417C14.3185 10.525 14.1852 10.45 14.0352 10.4667L6.18518 10.8917C6.03518 10.9 5.90185 10.9917 5.83518 11.125C5.76852 11.2583 5.78518 11.425 5.86852 11.55L7.06018 13.25Z" fill="#09A8D4"/>
<path d="M0.419299 20.8833C0.502632 20.8833 0.585966 20.8583 0.660966 20.8083L4.75263 17.9333C4.9443 17.8 4.98597 17.5417 4.85263 17.35C4.7193 17.1583 4.46097 17.1167 4.2693 17.25L0.177632 20.125C-0.0140344 20.2583 -0.055701 20.5167 0.0776323 20.7083C0.160966 20.8167 0.294299 20.8833 0.419299 20.8833Z" fill="#09A8D4"/>
<path d="M2.59508 15.275C2.67841 15.275 2.76175 15.25 2.83675 15.2L4.20341 14.2417C4.39508 14.1083 4.43675 13.85 4.30341 13.6583C4.17008 13.4667 3.91175 13.425 3.72008 13.5583L2.35341 14.5167C2.16175 14.65 2.12008 14.9083 2.25341 15.1C2.33675 15.2167 2.46175 15.275 2.59508 15.275Z" fill="#09A8D4"/>
<path d="M6.66878 20.6584L8.03544 19.7001C8.22711 19.5667 8.26878 19.3084 8.13544 19.1167C8.00211 18.9251 7.74378 18.8834 7.55211 19.0167L6.18544 19.9751C5.99378 20.1084 5.95211 20.3667 6.08544 20.5584C6.16878 20.6751 6.29378 20.7334 6.42711 20.7334C6.51044 20.7334 6.59378 20.7084 6.66878 20.6584Z" fill="#09A8D4"/>
<path d="M21.2961 9.08328C21.0628 9.08328 20.8794 9.26662 20.8794 9.49995C20.8794 9.73328 21.0628 9.91662 21.2961 9.91662H22.1461V10.1666C22.1461 10.4 22.3294 10.5833 22.5628 10.5833C22.7961 10.5833 22.9794 10.4 22.9794 10.1666V9.87495C23.7044 9.70828 24.2461 9.05828 24.2461 8.28328C24.2461 7.84995 24.0794 7.43328 23.7628 7.12495C23.5461 6.90828 23.2711 6.75828 22.9711 6.69162V5.04995H23.8211C24.0544 5.04995 24.2378 4.86662 24.2378 4.63328C24.2378 4.39995 24.0544 4.21662 23.8211 4.21662H22.9711V3.99162C22.9711 3.75828 22.7878 3.57495 22.5544 3.57495C22.3211 3.57495 22.1378 3.75828 22.1378 3.99162V4.26662C21.4128 4.43328 20.8711 5.08328 20.8711 5.85828C20.8711 6.29995 21.0461 6.70828 21.3461 7.00828C21.5628 7.23328 21.8378 7.38328 22.1378 7.44995V9.09162H21.2961V9.08328ZM22.9878 7.58328C23.0628 7.61662 23.1294 7.65828 23.1878 7.71662C23.3378 7.86662 23.4211 8.06662 23.4211 8.28328C23.4211 8.59162 23.2378 8.84995 22.9878 8.98328V7.58328ZM21.9461 6.41662C21.7961 6.26662 21.7128 6.06662 21.7128 5.85828C21.7128 5.54995 21.8961 5.28328 22.1461 5.14995V6.55828C22.0794 6.51662 22.0044 6.47495 21.9461 6.41662Z" fill="#09A8D4"/>
<path d="M22.569 12.4917C25.5523 12.4917 27.9857 10.0583 27.9857 7.07499C27.9857 4.09166 25.5523 1.65833 22.569 1.65833C19.5857 1.65833 17.1523 4.09166 17.1523 7.07499C17.1523 10.0583 19.5773 12.4917 22.569 12.4917ZM22.569 2.49166C25.094 2.49166 27.1523 4.54999 27.1523 7.07499C27.1523 9.59999 25.094 11.6583 22.569 11.6583C20.044 11.6583 17.9857 9.59999 17.9857 7.07499C17.9857 4.54999 20.044 2.49166 22.569 2.49166Z" fill="#09A8D4"/>
<path d="M22.5677 14.1583C22.9927 14.1583 23.4094 14.1167 23.8177 14.0417V30.4083C23.8177 30.6417 24.001 30.825 24.2344 30.825H27.5677C27.801 30.825 27.9844 30.6417 27.9844 30.4083V13.7417C27.9844 13.5083 27.801 13.325 27.5677 13.325H25.9094C28.1344 12.125 29.651 9.78333 29.651 7.08333C29.651 3.175 26.476 0 22.5677 0C18.6594 0 15.4844 3.175 15.4844 7.08333C15.4844 10.9917 18.6594 14.1583 22.5677 14.1583ZM27.151 14.1583V29.9917H24.651V14.1583H27.151ZM22.5677 0.825C26.0177 0.825 28.8177 3.625 28.8177 7.075C28.8177 10.525 26.0177 13.325 22.5677 13.325C19.1177 13.325 16.3177 10.525 16.3177 7.075C16.3177 3.625 19.1177 0.825 22.5677 0.825Z" fill="#09A8D4"/>
<path d="M0.901042 24.9917C0.667708 24.9917 0.484375 25.175 0.484375 25.4084V30.4084C0.484375 30.6417 0.667708 30.825 0.901042 30.825H4.23438C4.46771 30.825 4.65104 30.6417 4.65104 30.4084V25.4084C4.65104 25.175 4.46771 24.9917 4.23438 24.9917H0.901042ZM3.81771 29.9917H1.31771V25.825H3.81771V29.9917Z" fill="#09A8D4"/>
<path d="M6.73698 30.825H10.0703C10.3036 30.825 10.487 30.6417 10.487 30.4084V22.9084C10.487 22.675 10.3036 22.4917 10.0703 22.4917H6.73698C6.50365 22.4917 6.32031 22.675 6.32031 22.9084V30.4084C6.32031 30.6334 6.50365 30.825 6.73698 30.825ZM7.15365 23.325H9.65365V29.9917H7.15365V23.325Z" fill="#09A8D4"/>
<path d="M12.569 19.1583C12.3357 19.1583 12.1523 19.3417 12.1523 19.575V30.4083C12.1523 30.6417 12.3357 30.825 12.569 30.825H15.9023C16.1357 30.825 16.319 30.6417 16.319 30.4083V19.575C16.319 19.3417 16.1357 19.1583 15.9023 19.1583H12.569ZM15.4857 29.9917H12.9857V19.9917H15.4857V29.9917Z" fill="#09A8D4"/>
<path d="M18.401 16.6583C18.1677 16.6583 17.9844 16.8417 17.9844 17.075V30.4083C17.9844 30.6417 18.1677 30.825 18.401 30.825H21.7344C21.9677 30.825 22.151 30.6417 22.151 30.4083V17.075C22.151 16.8417 21.9677 16.6583 21.7344 16.6583H18.401ZM21.3177 29.9917H18.8177V17.4917H21.3177V29.9917Z" fill="#09A8D4"/>
</svg>
