<svg width="73" height="73" viewBox="0 0 73 73" fill="none" xmlns="http://www.w3.org/2000/svg">
<path fill-rule="evenodd" clip-rule="evenodd" d="M19.8848 72.5854H10.5091C9.88272 72.5854 9.375 72.0777 9.375 71.4512V60.9037C9.375 60.2773 9.88272 59.7695 10.5091 59.7695H19.8848C20.5112 59.7695 21.0189 60.2773 21.0189 60.9037V71.4512C21.0189 72.0777 20.5112 72.5854 19.8848 72.5854ZM11.6433 70.3171H18.7506V62.0378H11.6433V70.3171Z" fill="#09A8D4"/>
<path fill-rule="evenodd" clip-rule="evenodd" d="M40.9785 72.5855H31.6029C30.9765 72.5855 30.4688 72.0778 30.4688 71.4514V51.5282C30.4688 50.9018 30.9765 50.394 31.6029 50.394H40.9785C41.6049 50.394 42.1127 50.9018 42.1127 51.5282V71.4514C42.1127 72.0778 41.6049 72.5855 40.9785 72.5855ZM32.737 70.3172H39.8444V52.6623H32.737V70.3172Z" fill="#09A8D4"/>
<path fill-rule="evenodd" clip-rule="evenodd" d="M62.0762 72.5854H52.7006C52.0741 72.5854 51.5664 72.0777 51.5664 71.4512V42.1525C51.5664 41.526 52.0741 41.0183 52.7006 41.0183H62.0762C62.7026 41.0183 63.2103 41.526 63.2103 42.1525V71.4512C63.2103 72.0777 62.7026 72.5854 62.0762 72.5854ZM53.8347 70.3171H60.942V43.2866H53.8347V70.3171Z" fill="#09A8D4"/>
<path fill-rule="evenodd" clip-rule="evenodd" d="M18.7128 56.1782H10.5091C9.88272 56.1782 9.375 55.6704 9.375 55.044C9.375 54.4176 9.88272 53.9099 10.5091 53.9099H18.1982L26.063 44.9217C26.2785 44.6755 26.5894 44.5343 26.9167 44.5343H36.8274L43.5921 35.6078C43.8065 35.3249 44.1411 35.1587 44.4959 35.1587H53.4018L62.4453 26.1154C62.8882 25.6725 63.6063 25.6725 64.0492 26.1154C64.4921 26.5583 64.4921 27.2763 64.0492 27.7192L54.6736 37.0948C54.461 37.3074 54.1724 37.4272 53.8715 37.4272H45.0596L38.2949 46.3536C38.0805 46.6365 37.7459 46.8028 37.3911 46.8028H27.4313L19.5665 55.7908C19.351 56.0369 19.0398 56.1782 18.7128 56.1782Z" fill="#09A8D4"/>
<path fill-rule="evenodd" clip-rule="evenodd" d="M63.2478 33.911C62.6214 33.911 62.1137 33.4033 62.1137 32.7769V28.0513H57.3881C56.7616 28.0513 56.2539 27.5435 56.2539 26.9171C56.2539 26.2907 56.7616 25.783 57.3881 25.783H63.2478C63.8742 25.783 64.382 26.2907 64.382 26.9171V32.7769C64.382 33.4033 63.8742 33.911 63.2478 33.911Z" fill="#09A8D4"/>
<path fill-rule="evenodd" clip-rule="evenodd" d="M60.9044 23.3634C57.784 23.3634 54.8505 22.1484 52.6442 19.9419C50.4379 17.7354 49.2227 14.802 49.2227 11.6817C49.2227 8.56138 50.4377 5.62785 52.6442 3.42154C54.8507 1.21524 57.784 0 60.9044 0C64.0247 0 66.9582 1.21504 69.1645 3.42154C71.371 5.62805 72.5861 8.56138 72.5861 11.6817C72.5861 14.802 71.371 17.7356 69.1645 19.9419C66.9582 22.1484 64.0247 23.3634 60.9044 23.3634ZM60.9044 2.26829C55.7137 2.26829 51.4909 6.49106 51.4909 11.6817C51.4909 16.8722 55.7137 21.0951 60.9044 21.0951C66.095 21.0951 70.3178 16.8724 70.3178 11.6817C70.3178 6.49106 66.095 2.26829 60.9044 2.26829Z" fill="#09A8D4"/>
<path fill-rule="evenodd" clip-rule="evenodd" d="M60.9041 18.6755C57.0476 18.6755 53.9102 15.5381 53.9102 11.6816C53.9102 7.82514 57.0476 4.68774 60.9041 4.68774C64.7606 4.68774 67.898 7.82514 67.898 11.6816C67.898 15.5381 64.7606 18.6755 60.9041 18.6755ZM60.9041 6.95604C58.2984 6.95604 56.1784 9.07595 56.1784 11.6816C56.1784 14.2873 58.2984 16.4073 60.9041 16.4073C63.5098 16.4073 65.6297 14.2873 65.6297 11.6816C65.6297 9.07595 63.5098 6.95604 60.9041 6.95604Z" fill="#09A8D4"/>
<path fill-rule="evenodd" clip-rule="evenodd" d="M60.9039 12.8158C60.8671 12.8158 60.8293 12.8139 60.7923 12.8101C60.7555 12.8062 60.7187 12.8011 60.6821 12.7936C60.6462 12.7865 60.61 12.7772 60.5744 12.7662C60.5394 12.7558 60.5039 12.743 60.4699 12.7288C60.4358 12.7145 60.4018 12.6991 60.3697 12.6816C60.3372 12.6641 60.3049 12.6452 60.2742 12.6245C60.2429 12.6042 60.2132 12.582 60.1844 12.5589C60.1555 12.5353 60.1277 12.5101 60.1016 12.4837C60.0752 12.4576 60.0502 12.4298 60.0264 12.4009C60.0033 12.3721 59.9811 12.3424 59.9608 12.3111C59.9401 12.2804 59.9212 12.2483 59.9037 12.2156C59.8862 12.1828 59.8705 12.1493 59.8565 12.1154C59.8423 12.0814 59.8297 12.0458 59.8191 12.0109C59.8083 11.9753 59.7988 11.9389 59.7917 11.9032C59.7842 11.8668 59.7789 11.83 59.7752 11.793C59.7714 11.7562 59.7695 11.7184 59.7695 11.6814C59.7695 11.6446 59.7714 11.6068 59.7752 11.5698C59.7791 11.533 59.7842 11.4963 59.7917 11.4597C59.7988 11.4237 59.8083 11.3873 59.8191 11.3519C59.8295 11.317 59.8423 11.2814 59.8565 11.2475C59.8707 11.2135 59.8862 11.18 59.9037 11.1473C59.9212 11.1148 59.9401 11.0824 59.9608 11.0517C59.9811 11.0211 60.0033 10.9908 60.0264 10.9619C60.05 10.933 60.075 10.9052 60.1016 10.8792C60.1277 10.8532 60.1555 10.8278 60.1844 10.804C60.2132 10.7808 60.2429 10.7587 60.2742 10.7383C60.3049 10.7176 60.337 10.6987 60.3697 10.6812C60.4018 10.6637 60.4358 10.6481 60.4699 10.6341C60.5039 10.6198 60.5394 10.6072 60.5744 10.5967C60.61 10.5857 60.6462 10.5763 60.6821 10.5692C60.7185 10.5621 60.7555 10.5564 60.7923 10.5528C60.8665 10.5452 60.9411 10.5452 61.0155 10.5528C61.0522 10.5566 61.0892 10.5623 61.1256 10.5692C61.1616 10.5763 61.198 10.5857 61.2334 10.5967C61.2683 10.607 61.3039 10.6198 61.3378 10.6341C61.372 10.6483 61.4055 10.6637 61.438 10.6812C61.4705 10.6987 61.5029 10.7176 61.5336 10.7383C61.5642 10.7587 61.5945 10.7808 61.6234 10.804C61.6522 10.8276 61.6801 10.8532 61.7061 10.8792C61.7321 10.9052 61.7575 10.933 61.7813 10.9619C61.8045 10.9908 61.8266 11.0208 61.847 11.0517C61.8677 11.0824 61.8866 11.1145 61.9041 11.1473C61.9212 11.1798 61.9372 11.2133 61.9512 11.2475C61.9655 11.2814 61.9781 11.317 61.9886 11.3519C61.9994 11.3875 62.009 11.4237 62.0161 11.4597C62.0232 11.4961 62.0289 11.533 62.0325 11.5698C62.0364 11.6066 62.0382 11.6444 62.0382 11.6814C62.0382 11.7184 62.0364 11.756 62.0325 11.793C62.0287 11.8298 62.023 11.8668 62.0161 11.9032C62.009 11.9391 61.9994 11.9755 61.9886 12.0109C61.9783 12.0458 61.9655 12.0812 61.9512 12.1154C61.937 12.1493 61.921 12.1828 61.9041 12.2156C61.8866 12.2481 61.8677 12.2804 61.847 12.3111C61.8266 12.3422 61.8045 12.3721 61.7813 12.4009C61.7577 12.4298 61.7321 12.4576 61.7061 12.4837C61.6801 12.5101 61.6522 12.5351 61.6234 12.5589C61.5945 12.582 61.5642 12.6042 61.5336 12.6245C61.5029 12.6452 61.4707 12.6641 61.438 12.6816C61.4055 12.6991 61.372 12.7148 61.3378 12.7288C61.3039 12.743 61.2683 12.7556 61.2334 12.7662C61.1978 12.7772 61.1616 12.7865 61.1256 12.7936C61.0892 12.8011 61.0525 12.8064 61.0155 12.8101C60.9785 12.8139 60.9407 12.8158 60.9039 12.8158Z" fill="#09A8D4"/>
<path fill-rule="evenodd" clip-rule="evenodd" d="M71.4512 72.5854H1.13415C0.507724 72.5854 0 72.0777 0 71.4513C0 70.8249 0.507724 70.3171 1.13415 70.3171H71.4512C72.0776 70.3171 72.5854 70.8249 72.5854 71.4513C72.5854 72.0777 72.0776 72.5854 71.4512 72.5854Z" fill="#09A8D4"/>
</svg>
