<svg width="90" height="62" viewBox="0 0 90 62" fill="none" xmlns="http://www.w3.org/2000/svg">
<path fill-rule="evenodd" clip-rule="evenodd" d="M50.9432 21.9807C50.679 21.9807 50.4166 21.8806 50.2167 21.6799L38.0865 9.54881C37.6851 9.14777 37.6845 8.49689 38.086 8.09567C38.4879 7.6937 39.1368 7.69434 39.5383 8.09567L51.6698 20.2264C52.0713 20.6275 52.0707 21.2785 51.6692 21.6799C51.4698 21.8804 51.2052 21.9809 50.9432 21.9807Z" fill="#09A8D4"/>
<path fill-rule="evenodd" clip-rule="evenodd" d="M38.8124 21.9809C38.5506 21.9809 38.2858 21.8808 38.086 21.68C37.6852 21.2783 37.6846 20.6278 38.086 20.2266L50.2174 8.09571C50.6188 7.69426 51.2678 7.69437 51.6692 8.09582C52.0713 8.49675 52.0708 9.14797 51.6692 9.54925L39.539 21.6798C39.339 21.8805 39.0745 21.981 38.8124 21.9809Z" fill="#09A8D4"/>
<path fill-rule="evenodd" clip-rule="evenodd" d="M78.1805 40.8049H87.7028V11.4099H78.1805V40.8049ZM88.7305 42.8603H77.1528C76.586 42.8603 76.125 42.4003 76.125 41.8327L76.1251 10.3822C76.1251 9.81454 76.5854 9.35478 77.1527 9.35478L88.7305 9.35449C89.2981 9.35449 89.758 9.81471 89.758 10.3823L89.7582 41.8326C89.7582 42.4002 89.2977 42.8604 88.7305 42.8603Z" fill="#09A8D4"/>
<path fill-rule="evenodd" clip-rule="evenodd" d="M75.0732 16.1929C68.2166 16.1929 64.136 14.6066 60.177 13.0677C59.4329 12.7786 58.6639 12.4799 57.9003 12.2025C57.3672 12.0086 57.092 11.4192 57.2848 10.8857C57.4794 10.3519 58.0698 10.0768 58.6014 10.2706C59.3888 10.5558 60.1681 10.8589 60.921 11.1518C65.0749 12.7662 69.3692 14.4358 77.1054 14.0911C77.677 14.0649 78.1528 14.5052 78.1778 15.0721C78.2046 15.6389 77.7655 16.1194 77.1981 16.1445C76.4614 16.1772 75.7531 16.1931 75.0732 16.1929ZM27.0933 30.6453C25.2483 30.6457 24.2289 29.8532 23.6757 29.1037C22.5273 27.5454 22.6178 25.0079 23.9238 22.1416C25.2105 19.3181 27.5029 16.4993 30.379 14.2033C30.8219 13.8488 31.4692 13.9218 31.8225 14.3653C32.178 14.8087 32.1044 15.4555 31.6601 15.8096C25.8978 20.4112 24.0326 26.1244 25.3298 27.884C26.231 29.105 29.4691 29.0446 35.6353 24.8548C36.105 24.5357 36.7433 24.6576 37.0627 25.127C37.3824 25.5963 37.2607 26.2358 36.7896 26.5547C32.2134 29.6645 29.1445 30.6454 27.0926 30.6456L27.0933 30.6453ZM63.587 38.2551C63.0235 38.2551 62.5642 37.8017 62.5589 37.2375C62.5538 36.6697 63.0085 36.2054 63.576 36.2L77.1415 36.0692H77.1518C77.7164 36.0692 78.1742 36.523 78.1795 37.0871C78.1853 37.6545 77.7298 38.1191 77.1625 38.1246L63.5959 38.2551C63.5943 38.2551 63.5901 38.2552 63.587 38.2551Z" fill="#09A8D4"/>
<path fill-rule="evenodd" clip-rule="evenodd" d="M30.9497 16.0884H12.6061C12.0385 16.0884 11.5781 15.6282 11.5781 15.0607C11.5784 14.4931 12.0383 14.033 12.6058 14.033H30.9497C31.5165 14.033 31.9769 14.4932 31.9769 15.0607C31.9774 15.6279 31.5165 16.0884 30.9497 16.0884ZM41.2886 61.5432C39.8956 61.5432 38.5017 61.0781 37.4418 60.1471L18.8847 43.8603H12.6061C12.0385 43.8603 11.5781 43.4002 11.5781 42.8326C11.5784 42.265 12.0383 41.805 12.6058 41.805H19.2717C19.5214 41.805 19.7621 41.8958 19.9495 42.0603L38.798 58.6022C40.1485 59.7873 42.4304 59.7874 43.7793 58.6023C44.3989 58.0602 44.7373 57.3469 44.7373 56.5933C44.7377 55.8395 44.3984 55.1263 43.7793 54.5843C43.5495 54.381 43.4296 54.0966 43.4296 53.811C43.4298 53.5701 43.5152 53.329 43.6865 53.1341C44.0602 52.707 44.709 52.6652 45.1352 53.0396C46.4864 54.2244 48.768 54.2247 50.1186 53.0396C50.7362 52.4974 51.0767 51.7841 51.0767 51.0305C51.0774 50.2767 50.736 49.5634 50.1186 49.0215C49.8868 48.8182 49.7689 48.5338 49.7689 48.248C49.7695 48.0076 49.8527 47.7662 50.0241 47.5711C50.3989 47.1441 51.0481 47.1024 51.4746 47.4768C52.8253 48.6616 55.1071 48.6618 56.4578 47.4768C57.0757 46.9346 57.4142 46.2214 57.4142 45.4677C57.4146 44.7138 57.0752 44.0006 56.4578 43.4587C56.2263 43.255 56.1063 42.9711 56.1081 42.6853C56.1084 42.4445 56.192 42.2034 56.3633 42.0083C56.7361 41.5817 57.3856 41.5394 57.8138 41.9138C59.1633 43.0988 61.4447 43.099 62.7953 41.9139C63.3985 41.3842 63.7392 40.6868 63.7534 39.9502C63.7663 39.2241 63.4607 38.5269 62.8935 37.9854L51.1785 27.6339C50.7538 27.2578 50.7127 26.6086 51.0892 26.1832C51.466 25.7576 52.1133 25.7176 52.5397 26.0937L64.2672 36.4573C64.2769 36.4645 64.2852 36.4725 64.2923 36.4802C65.2933 37.4252 65.8321 38.671 65.8072 39.9878C65.7839 41.31 65.1951 42.5426 64.1513 43.4587C62.8655 44.5869 61.0931 45.0318 59.4196 44.7921C59.4539 45.0137 59.4696 45.2397 59.4696 45.4677C59.47 46.8214 58.8807 48.0837 57.8138 49.0215C56.5274 50.1498 54.7539 50.5944 53.0821 50.3548C53.1143 50.5765 53.1321 50.8025 53.1321 51.0307C53.1328 52.3843 52.5433 53.6465 51.4746 54.5843C50.1885 55.7126 48.413 56.157 46.7429 55.9178C46.7771 56.1393 46.7927 56.3651 46.7927 56.5933C46.7931 57.947 46.204 59.2093 45.1352 60.1471C44.0762 61.0779 42.6819 61.5434 41.2886 61.5432Z" fill="#09A8D4"/>
<path fill-rule="evenodd" clip-rule="evenodd" d="M44.4571 54.8396C44.2163 54.8396 43.9751 54.7557 43.7789 54.5844L34.4475 46.3932C34.0212 46.0191 33.9783 45.3697 34.353 44.9431C34.7277 44.516 35.377 44.4745 35.8035 44.8487L45.1356 53.0395C45.5619 53.4137 45.6041 54.0634 45.2295 54.4899C45.0264 54.7212 44.7423 54.8398 44.4571 54.8396Z" fill="#09A8D4"/>
<path fill-rule="evenodd" clip-rule="evenodd" d="M50.795 49.2768C50.5542 49.2768 50.3108 49.193 50.1164 49.0217L40.7837 40.8304C40.3575 40.4563 40.314 39.807 40.6887 39.3804C41.0639 38.9533 41.7128 38.9117 42.1392 39.2859L51.4726 47.4768C51.899 47.8509 51.9416 48.5005 51.5669 48.9271C51.3642 49.1584 51.0797 49.277 50.7944 49.277L50.795 49.2768Z" fill="#09A8D4"/>
<path fill-rule="evenodd" clip-rule="evenodd" d="M57.1331 43.7137C56.8921 43.7137 56.6509 43.6299 56.4564 43.4586L47.1233 35.2677C46.697 34.8932 46.654 34.2439 47.0287 33.8173C47.4036 33.3905 48.0529 33.3486 48.4792 33.7229L57.813 41.9136C58.2394 42.2881 58.2799 42.9376 57.9052 43.364C57.7038 43.5953 57.4181 43.714 57.1331 43.7137Z" fill="#09A8D4"/>
<path fill-rule="evenodd" clip-rule="evenodd" d="M2.05575 45.2697H11.578V12.623H2.05575V45.2697ZM12.6057 47.3251H1.02805C0.460331 47.3251 0 46.8654 0 46.2978L0.000345947 11.5953C0.000345947 11.0277 0.460331 10.5676 1.02764 10.5676H12.6057C13.1734 10.5676 13.633 11.0277 13.633 11.5953L13.6334 46.2978C13.6334 46.8651 13.1727 47.3254 12.6057 47.3251Z" fill="#09A8D4"/>
<path fill-rule="evenodd" clip-rule="evenodd" d="M44.8803 2.05511C37.8052 2.05511 32.0476 7.81202 32.0476 14.8879C32.0477 21.9636 37.8052 27.7204 44.8795 27.7204C51.9561 27.7203 57.7134 21.9636 57.7134 14.8879C57.7137 7.81184 51.9557 2.05528 44.8795 2.05528L44.8803 2.05511ZM44.8803 29.7757C36.6707 29.7757 29.9922 23.0971 29.9922 14.8879C29.9923 6.67855 36.6705 9.33662e-09 44.8795 9.33662e-09C53.0906 -0.000288346 59.7688 6.67872 59.7688 14.8879C59.7691 23.0968 53.0904 29.7758 44.8803 29.7757Z" fill="#09A8D4"/>
</svg>
