<svg width="20" height="20" viewBox="0 0 20 20" fill="none" xmlns="http://www.w3.org/2000/svg">
<g clip-path="url(#clip0_153_316)">
<path d="M19.422 6.17467L17.3333 4.744V1C17.3333 0.734784 17.228 0.48043 17.0404 0.292893C16.8529 0.105357 16.5986 0 16.3333 0L3.66667 0C3.40145 0 3.1471 0.105357 2.95956 0.292893C2.77203 0.48043 2.66667 0.734784 2.66667 1V4.744L0.58067 6.17333C0.401502 6.29384 0.254791 6.45664 0.153513 6.64733C0.0522344 6.83803 -0.00048981 7.05075 3.4291e-06 7.26667V18.6733C0.00123909 19.026 0.142324 19.3637 0.392296 19.6124C0.642268 19.8611 0.980706 20.0005 1.33334 20H18.6667C19.0193 20.0005 19.3577 19.8611 19.6077 19.6124C19.8577 19.3637 19.9988 19.026 20 18.6733V7.26667C20.0006 7.05121 19.9482 6.83892 19.8474 6.64849C19.7466 6.45807 19.6005 6.29535 19.422 6.17467ZM19.271 18.9477L11.7477 13.2367L19.3333 7.347V18.6733C19.3329 18.7682 19.3116 18.8619 19.271 18.9477ZM19.0463 6.72567L17.3333 8.05567V5.55233L19.0463 6.72567ZM3.66667 0.666667H16.3333C16.4217 0.666667 16.5065 0.701786 16.569 0.764298C16.6316 0.82681 16.6667 0.911595 16.6667 1V8.57333L11.198 12.8193L10.998 12.6677C10.7105 12.4506 10.3601 12.3332 9.99984 12.3332C9.6396 12.3332 9.28918 12.4506 9.00167 12.6677L8.80167 12.819L3.33334 8.57333V1C3.33334 0.911595 3.36846 0.82681 3.43097 0.764298C3.49348 0.701786 3.57827 0.666667 3.66667 0.666667ZM0.729003 18.9477C0.688418 18.8619 0.66714 18.7682 0.66667 18.6733V7.347L8.25234 13.2367L0.729003 18.9477ZM2.66667 5.55233V8.05567L0.954004 6.726L2.66667 5.55233ZM1.33334 19.3333C1.33045 19.3335 1.32756 19.3335 1.32467 19.3333L9.405 13.2C9.5763 13.0706 9.78514 13.0005 9.99984 13.0005C10.2145 13.0005 10.4234 13.0706 10.5947 13.2L18.6753 19.3333C18.6725 19.3335 18.6696 19.3335 18.6667 19.3333H1.33334Z" fill="white"/>
<path d="M10.0013 10.6667C10.7619 10.6668 11.5092 10.4668 12.168 10.0867C12.2417 10.0411 12.2947 9.96857 12.3159 9.88452C12.337 9.80047 12.3246 9.7115 12.2812 9.63646C12.2379 9.56141 12.167 9.50621 12.0836 9.48254C12.0003 9.45887 11.911 9.4686 11.8346 9.50967C11.1357 9.91323 10.323 10.0749 9.52282 9.96955C8.7226 9.86423 7.97949 9.49781 7.40874 8.92713C6.83798 8.35644 6.47148 7.61338 6.36605 6.81318C6.26063 6.01297 6.42218 5.20034 6.82565 4.5013C7.22912 3.80227 7.85197 3.25589 8.59761 2.9469C9.34324 2.63791 10.17 2.58358 10.9497 2.79234C11.7293 3.00109 12.4183 3.46126 12.9098 4.10149C13.4013 4.74171 13.6678 5.52622 13.668 6.33334V6.83334C13.668 7.05435 13.5802 7.26631 13.4239 7.42259C13.2676 7.57887 13.0557 7.66667 12.8346 7.66667C12.6136 7.66667 12.4017 7.57887 12.2454 7.42259C12.0891 7.26631 12.0013 7.05435 12.0013 6.83334V4.66667C12.0013 4.57826 11.9662 4.49348 11.9037 4.43097C11.8412 4.36845 11.7564 4.33334 11.668 4.33334C11.5796 4.33334 11.4948 4.36845 11.4323 4.43097C11.3698 4.49348 11.3346 4.57826 11.3346 4.66667V4.84667C11.0372 4.57959 10.6666 4.40776 10.2705 4.35337C9.87451 4.29897 9.47126 4.3645 9.11284 4.5415C8.75441 4.7185 8.45725 4.99885 8.25969 5.34636C8.06214 5.69388 7.97325 6.09263 8.00451 6.49115C8.03577 6.88968 8.18573 7.26969 8.43505 7.58216C8.68437 7.89463 9.02161 8.12522 9.40325 8.24417C9.78489 8.36312 10.1934 8.36498 10.5761 8.24951C10.9588 8.13403 11.2981 7.90652 11.5503 7.59634C11.7169 7.87959 11.9721 8.10009 12.2765 8.22377C12.5809 8.34744 12.9176 8.3674 13.2345 8.28056C13.5514 8.19371 13.8309 8.00491 14.0297 7.74332C14.2286 7.48173 14.3357 7.16192 14.3346 6.83334V6.33334C14.3346 5.47628 14.0805 4.63848 13.6043 3.92586C13.1282 3.21325 12.4514 2.65784 11.6596 2.32986C10.8678 2.00188 9.9965 1.91606 9.15591 2.08327C8.31533 2.25047 7.5432 2.66318 6.93717 3.26921C6.33115 3.87523 5.91844 4.64736 5.75123 5.48794C5.58403 6.32853 5.66985 7.19982 5.99783 7.99163C6.32581 8.78344 6.88122 9.46022 7.59383 9.93637C8.30645 10.4125 9.14425 10.6667 10.0013 10.6667ZM10.0013 7.66667C9.7376 7.66667 9.47981 7.58847 9.26054 7.44196C9.04128 7.29545 8.87038 7.08721 8.76946 6.84358C8.66855 6.59995 8.64214 6.33186 8.69359 6.07322C8.74504 5.81457 8.87203 5.577 9.0585 5.39053C9.24497 5.20406 9.48254 5.07707 9.74118 5.02562C9.99982 4.97417 10.2679 5.00058 10.5115 5.1015C10.7552 5.20241 10.9634 5.37331 11.1099 5.59258C11.2564 5.81184 11.3346 6.06963 11.3346 6.33334C11.3346 6.68696 11.1942 7.0261 10.9441 7.27614C10.6941 7.52619 10.3549 7.66667 10.0013 7.66667Z" fill="white"/>
</g>
<defs>
<clipPath id="clip0_153_316">
<rect width="20" height="20" fill="white"/>
</clipPath>
</defs>
</svg>
