<svg width="30" height="34" viewBox="0 0 30 34" fill="none" xmlns="http://www.w3.org/2000/svg">
<g clip-path="url(#clip0_153_285)">
<path d="M15.0039 9.29425C10.745 9.29425 7.3097 12.6758 7.3097 16.8682C7.3097 21.0606 10.745 24.4422 15.0039 24.4422C19.2628 24.4422 22.6981 21.0606 22.6981 16.8682C22.6981 12.6758 19.2628 9.29425 15.0039 9.29425ZM15.0039 21.7923C12.2517 21.7923 10.0017 19.584 10.0017 16.8682C10.0017 14.1524 12.245 11.9441 15.0039 11.9441C17.7628 11.9441 20.0061 14.1524 20.0061 16.8682C20.0061 19.584 17.7561 21.7923 15.0039 21.7923ZM24.8075 8.98443C24.8075 9.96661 24.0039 10.751 23.0128 10.751C22.0151 10.751 21.2182 9.96002 21.2182 8.98443C21.2182 8.00885 22.0217 7.21783 23.0128 7.21783C24.0039 7.21783 24.8075 8.00885 24.8075 8.98443ZM29.9034 10.7774C29.7896 8.41095 29.2405 6.31476 27.4793 4.58771C25.7249 2.86066 23.5954 2.32013 21.1914 2.20148C18.7137 2.06305 11.2874 2.06305 8.8097 2.20148C6.41238 2.31354 4.28292 2.85406 2.52176 4.58111C0.760602 6.30816 0.218192 8.40435 0.0976562 10.7708C-0.0429687 13.2098 -0.0429687 20.5201 0.0976562 22.959C0.211495 25.3255 0.760602 27.4217 2.52176 29.1487C4.28292 30.8758 6.40569 31.4163 8.8097 31.535C11.2874 31.6734 18.7137 31.6734 21.1914 31.535C23.5954 31.4229 25.7249 30.8824 27.4793 29.1487C29.2338 27.4217 29.7829 25.3255 29.9034 22.959C30.0441 20.5201 30.0441 13.2164 29.9034 10.7774ZM26.7025 25.576C26.1802 26.868 25.1691 27.8633 23.8499 28.3841C21.8744 29.1553 17.1869 28.9773 15.0039 28.9773C12.8209 28.9773 8.12667 29.1487 6.15792 28.3841C4.84542 27.8699 3.83426 26.8746 3.30524 25.576C2.52176 23.6314 2.70256 19.0171 2.70256 16.8682C2.70256 14.7193 2.52846 10.0984 3.30524 8.16046C3.82756 6.86847 4.83872 5.87311 6.15792 5.35235C8.13336 4.58111 12.8209 4.75909 15.0039 4.75909C17.1869 4.75909 21.8811 4.58771 23.8499 5.35235C25.1624 5.86651 26.1735 6.86188 26.7025 8.16046C27.486 10.105 27.3052 14.7193 27.3052 16.8682C27.3052 19.0171 27.486 23.638 26.7025 25.576Z" fill="#333333"/>
</g>
<defs>
<clipPath id="clip0_153_285">
<rect width="30" height="33.75" fill="white"/>
</clipPath>
</defs>
</svg>
