<svg width="30" height="29" viewBox="0 0 30 29" fill="none" xmlns="http://www.w3.org/2000/svg">
<g clip-path="url(#clip0_153_289)">
<path d="M6.81129 28.125V9.14912H0.379474V28.125H6.81129ZM3.59621 6.55672C5.8391 6.55672 7.23519 5.0996 7.23519 3.27867C7.1934 1.41668 5.83919 0 3.63878 0C1.43871 0 0 1.41671 0 3.27867C0 5.09968 1.39575 6.55672 3.55423 6.55672H3.59601H3.59621ZM10.3713 28.125H16.8031V17.5279C16.8031 16.9608 16.8449 16.3943 17.0147 15.9888C17.4797 14.8557 18.538 13.6821 20.3147 13.6821C22.6421 13.6821 23.5732 15.4223 23.5732 17.9732V28.1249H30.0046V17.2443C30.0046 11.4156 26.8315 8.70362 22.5998 8.70362C19.1301 8.70362 17.6066 10.6055 16.7603 11.9008H16.8032V9.14872H10.3714C10.4558 10.9293 10.3714 28.1246 10.3714 28.1246L10.3713 28.125Z" fill="#333333"/>
</g>
<defs>
<clipPath id="clip0_153_289">
<rect width="30" height="28.125" fill="white"/>
</clipPath>
</defs>
</svg>
