<svg width="20" height="20" viewBox="0 0 20 20" fill="none" xmlns="http://www.w3.org/2000/svg">
<path d="M9.99945 3.99512C8.40586 3.99512 7.10938 5.2916 7.10938 6.88523C7.10938 8.47887 8.40586 9.77535 9.99945 9.77535C11.593 9.77535 12.8895 8.47887 12.8895 6.88523C12.8895 5.2916 11.593 3.99512 9.99945 3.99512ZM9.99945 8.97855C8.8452 8.97855 7.90617 8.03953 7.90617 6.88523C7.90617 5.73094 8.8452 4.79191 9.99945 4.79191C11.1537 4.79191 12.0927 5.73098 12.0927 6.88523C12.0927 8.03949 11.1537 8.97855 9.99945 8.97855Z" fill="white"/>
<path d="M9.99871 0C6.20207 0 3.11332 3.08875 3.11328 6.88539C3.11328 8.87445 4.22488 11.6666 6.41707 15.1843C8.03258 17.7766 9.67133 19.8302 9.68766 19.8506C9.76332 19.945 9.87773 20 9.99871 20C10.1196 20 10.2341 19.945 10.3097 19.8506C10.326 19.8302 11.9648 17.7766 13.5803 15.1843C15.7725 11.6666 16.8841 8.87441 16.8841 6.88539C16.8841 3.08875 13.7953 0 9.99871 0ZM9.99871 18.9522C8.71621 17.2757 3.91016 10.7357 3.91016 6.88539C3.91016 3.52813 6.64148 0.796836 9.99871 0.796836C13.3559 0.796836 16.0873 3.52813 16.0873 6.88539C16.0873 10.7357 11.2812 17.2757 9.99871 18.9522Z" fill="white"/>
<path d="M14.49 3.5386C13.7881 2.59864 12.7879 1.88911 11.6737 1.54075C11.4634 1.475 11.2402 1.59215 11.1745 1.80215C11.1089 2.01215 11.2259 2.23563 11.4359 2.30129C13.4501 2.93098 14.8034 4.77336 14.8034 6.88579C14.8034 7.10582 14.9818 7.28418 15.2018 7.28418C15.4218 7.28418 15.6002 7.10582 15.6002 6.88579C15.6002 5.66864 15.2163 4.51118 14.49 3.5386Z" fill="white"/>
<path d="M10.3427 1.29645C10.2294 1.28961 10.1141 1.28613 9.99996 1.28613C9.77996 1.28613 9.60156 1.46449 9.60156 1.68453C9.60156 1.90457 9.77996 2.08293 9.99996 2.08293C10.0981 2.08293 10.1973 2.0859 10.2946 2.0918C10.3028 2.0923 10.3109 2.09254 10.3191 2.09254C10.5281 2.09254 10.7035 1.92965 10.7163 1.71816C10.7296 1.49855 10.5624 1.30977 10.3427 1.29645Z" fill="white"/>
</svg>
