<svg width="34" height="27" viewBox="0 0 34 27" fill="none" xmlns="http://www.w3.org/2000/svg">
<g clip-path="url(#clip0_153_293)">
<path d="M33.75 3.19479C32.4862 3.72817 31.1457 4.07829 29.773 4.23349C31.2028 3.4171 32.3006 2.12432 32.8175 0.583984C31.4584 1.35237 29.9713 1.89375 28.4207 2.18473C27.1575 0.902752 25.3581 0.101562 23.3665 0.101562C19.5424 0.101562 16.4421 3.05513 16.4421 6.69797C16.4421 7.21506 16.5034 7.71845 16.6213 8.20138C10.8667 7.92619 5.76466 5.30006 2.34945 1.30906C1.75355 2.28333 1.41209 3.4166 1.41209 4.62535C1.41209 6.914 2.63461 8.93299 4.49244 10.116C3.39286 10.0832 2.31748 9.80025 1.35606 9.29082C1.35567 9.31845 1.35567 9.34608 1.35567 9.37384C1.35567 12.5699 3.74243 15.2361 6.90992 15.8421C5.89028 16.1063 4.82075 16.145 3.78303 15.9552C4.66409 18.5759 7.22131 20.483 10.2512 20.5364C7.88142 22.3055 4.89573 23.3602 1.65177 23.3602C1.09279 23.3602 0.541714 23.3289 0 23.268C3.06426 25.1397 6.70386 26.2317 10.6141 26.2317C23.3504 26.2317 30.3149 16.18 30.3149 7.46299C30.3149 7.17688 30.3083 6.8924 30.2948 6.60955C31.6504 5.67596 32.8204 4.51962 33.75 3.19479Z" fill="#333333"/>
</g>
<defs>
<clipPath id="clip0_153_293">
<rect width="33.75" height="26.25" fill="white"/>
</clipPath>
</defs>
</svg>
